<mxfile host="app.diagrams.net" modified="2023-09-07T05:03:01.894Z" agent="Mozilla/5.0 (X11; Linux x86_64) AppleWebKit/537.36 (KHTML, like Gecko) Chrome/116.0.0.0 Safari/537.36" etag="oTwvonzus4bQoAONokzE" version="21.7.2" type="github">
  <diagram id="C5RBs43oDa-KdzZeNtuy" name="Page-1">
    <mxGraphModel dx="1956" dy="1191" grid="1" gridSize="10" guides="1" tooltips="1" connect="1" arrows="1" fold="1" page="1" pageScale="1" pageWidth="827" pageHeight="1169" math="0" shadow="0">
      <root>
        <mxCell id="WIyWlLk6GJQsqaUBKTNV-0" />
        <mxCell id="WIyWlLk6GJQsqaUBKTNV-1" parent="WIyWlLk6GJQsqaUBKTNV-0" />
        <mxCell id="WIyWlLk6GJQsqaUBKTNV-2" value="" style="rounded=0;html=1;jettySize=auto;orthogonalLoop=1;fontSize=12;endArrow=block;endFill=0;endSize=8;strokeWidth=1;shadow=0;labelBackgroundColor=none;edgeStyle=orthogonalEdgeStyle;fontColor=default;strokeColor=#A8201A;" parent="WIyWlLk6GJQsqaUBKTNV-1" source="WIyWlLk6GJQsqaUBKTNV-3" edge="1">
          <mxGeometry relative="1" as="geometry">
            <mxPoint x="220" y="170" as="targetPoint" />
          </mxGeometry>
        </mxCell>
        <mxCell id="WIyWlLk6GJQsqaUBKTNV-3" value="LOGIN PAGE&amp;nbsp;" style="rounded=1;whiteSpace=wrap;html=1;fontSize=12;glass=0;strokeWidth=1;shadow=0;labelBackgroundColor=none;fillColor=#FAE5C7;strokeColor=#0F8B8D;fontColor=#143642;" parent="WIyWlLk6GJQsqaUBKTNV-1" vertex="1">
          <mxGeometry x="160" y="80" width="120" height="40" as="geometry" />
        </mxCell>
        <mxCell id="ZzzxKtEmixDSX6EmBJlI-0" value="&lt;b style=&quot;&quot;&gt;&lt;font style=&quot;font-size: 18px;&quot;&gt;ADMIN BLOG&lt;/font&gt;&lt;/b&gt;" style="text;html=1;strokeColor=none;fillColor=none;align=center;verticalAlign=middle;whiteSpace=wrap;rounded=0;fontSize=12;labelBackgroundColor=none;fontColor=#143642;" vertex="1" parent="WIyWlLk6GJQsqaUBKTNV-1">
          <mxGeometry x="160" y="40" width="120" height="30" as="geometry" />
        </mxCell>
        <mxCell id="ZzzxKtEmixDSX6EmBJlI-5" value="&lt;font style=&quot;font-size: 12px;&quot;&gt;DASHBOARD&lt;/font&gt;" style="rounded=1;whiteSpace=wrap;html=1;fontSize=12;labelBackgroundColor=none;fillColor=#FAE5C7;strokeColor=#0F8B8D;fontColor=#143642;" vertex="1" parent="WIyWlLk6GJQsqaUBKTNV-1">
          <mxGeometry x="160" y="170" width="120" height="60" as="geometry" />
        </mxCell>
        <mxCell id="ZzzxKtEmixDSX6EmBJlI-6" value="&lt;font style=&quot;font-size: 12px;&quot;&gt;EDIT , DELETE&lt;br style=&quot;font-size: 12px;&quot;&gt;&lt;/font&gt;CONTENT" style="rounded=1;whiteSpace=wrap;html=1;fontSize=12;labelBackgroundColor=none;fillColor=#FAE5C7;strokeColor=#0F8B8D;fontColor=#143642;" vertex="1" parent="WIyWlLk6GJQsqaUBKTNV-1">
          <mxGeometry x="280" y="280" width="120" height="60" as="geometry" />
        </mxCell>
        <mxCell id="ZzzxKtEmixDSX6EmBJlI-7" value="&lt;font style=&quot;font-size: 12px;&quot;&gt;ADD &lt;/font&gt;&lt;br style=&quot;font-size: 12px;&quot;&gt;&lt;font color=&quot;#090042&quot;&gt;COTENT&lt;/font&gt;" style="rounded=1;whiteSpace=wrap;html=1;fontSize=12;labelBackgroundColor=none;fillColor=#FAE5C7;strokeColor=#0F8B8D;fontColor=#143642;" vertex="1" parent="WIyWlLk6GJQsqaUBKTNV-1">
          <mxGeometry x="40" y="280" width="120" height="60" as="geometry" />
        </mxCell>
        <mxCell id="ZzzxKtEmixDSX6EmBJlI-33" style="edgeStyle=none;curved=1;rounded=0;orthogonalLoop=1;jettySize=auto;html=1;strokeColor=#A8201A;fontSize=12;fontColor=#143642;startSize=8;endSize=8;fillColor=#FAE5C7;exitX=0.5;exitY=0.967;exitDx=0;exitDy=0;exitPerimeter=0;" edge="1" parent="WIyWlLk6GJQsqaUBKTNV-1" source="ZzzxKtEmixDSX6EmBJlI-40" target="ZzzxKtEmixDSX6EmBJlI-13">
          <mxGeometry relative="1" as="geometry">
            <mxPoint x="500" y="498.2352941176471" as="sourcePoint" />
          </mxGeometry>
        </mxCell>
        <mxCell id="ZzzxKtEmixDSX6EmBJlI-47" style="edgeStyle=none;curved=1;rounded=0;orthogonalLoop=1;jettySize=auto;html=1;exitX=0.5;exitY=1;exitDx=0;exitDy=0;strokeColor=#A8201A;fontSize=12;fontColor=#143642;startSize=8;endSize=8;fillColor=#FAE5C7;" edge="1" parent="WIyWlLk6GJQsqaUBKTNV-1" source="ZzzxKtEmixDSX6EmBJlI-13" target="ZzzxKtEmixDSX6EmBJlI-34">
          <mxGeometry relative="1" as="geometry" />
        </mxCell>
        <mxCell id="ZzzxKtEmixDSX6EmBJlI-13" value="&lt;font style=&quot;font-size: 13px;&quot;&gt;PUBLISH TO HOME PAGE&amp;nbsp;&lt;/font&gt;" style="rounded=1;whiteSpace=wrap;html=1;strokeColor=#0F8B8D;fontSize=16;fontColor=#143642;fillColor=#FAE5C7;" vertex="1" parent="WIyWlLk6GJQsqaUBKTNV-1">
          <mxGeometry x="165" y="700" width="120" height="60" as="geometry" />
        </mxCell>
        <mxCell id="ZzzxKtEmixDSX6EmBJlI-23" value="" style="endArrow=none;html=1;rounded=0;strokeColor=#A8201A;fontSize=12;fontColor=#143642;startSize=8;endSize=8;fillColor=#FAE5C7;curved=1;" edge="1" parent="WIyWlLk6GJQsqaUBKTNV-1">
          <mxGeometry width="50" height="50" relative="1" as="geometry">
            <mxPoint x="280" y="200" as="sourcePoint" />
            <mxPoint x="340" y="200" as="targetPoint" />
          </mxGeometry>
        </mxCell>
        <mxCell id="ZzzxKtEmixDSX6EmBJlI-24" value="" style="endArrow=none;html=1;rounded=0;strokeColor=#A8201A;fontSize=12;fontColor=#143642;startSize=8;endSize=8;fillColor=#FAE5C7;curved=1;" edge="1" parent="WIyWlLk6GJQsqaUBKTNV-1">
          <mxGeometry width="50" height="50" relative="1" as="geometry">
            <mxPoint x="100" y="200" as="sourcePoint" />
            <mxPoint x="160" y="200" as="targetPoint" />
          </mxGeometry>
        </mxCell>
        <mxCell id="ZzzxKtEmixDSX6EmBJlI-25" value="" style="endArrow=classic;html=1;rounded=0;strokeColor=#A8201A;fontSize=12;fontColor=#143642;startSize=8;endSize=8;fillColor=#FAE5C7;curved=1;" edge="1" parent="WIyWlLk6GJQsqaUBKTNV-1" target="ZzzxKtEmixDSX6EmBJlI-7">
          <mxGeometry width="50" height="50" relative="1" as="geometry">
            <mxPoint x="100" y="200" as="sourcePoint" />
            <mxPoint x="130" y="210" as="targetPoint" />
          </mxGeometry>
        </mxCell>
        <mxCell id="ZzzxKtEmixDSX6EmBJlI-26" value="" style="endArrow=classic;html=1;rounded=0;strokeColor=#A8201A;fontSize=12;fontColor=#143642;startSize=8;endSize=8;fillColor=#FAE5C7;curved=1;entryX=0.5;entryY=0;entryDx=0;entryDy=0;" edge="1" parent="WIyWlLk6GJQsqaUBKTNV-1" target="ZzzxKtEmixDSX6EmBJlI-6">
          <mxGeometry width="50" height="50" relative="1" as="geometry">
            <mxPoint x="340" y="200" as="sourcePoint" />
            <mxPoint x="365" y="200" as="targetPoint" />
          </mxGeometry>
        </mxCell>
        <mxCell id="ZzzxKtEmixDSX6EmBJlI-28" value="" style="endArrow=none;html=1;rounded=0;strokeColor=#A8201A;fontSize=12;fontColor=#143642;startSize=8;endSize=8;fillColor=#FAE5C7;curved=1;" edge="1" parent="WIyWlLk6GJQsqaUBKTNV-1">
          <mxGeometry width="50" height="50" relative="1" as="geometry">
            <mxPoint x="100" y="400" as="sourcePoint" />
            <mxPoint x="100" y="340" as="targetPoint" />
          </mxGeometry>
        </mxCell>
        <mxCell id="ZzzxKtEmixDSX6EmBJlI-29" value="" style="endArrow=none;html=1;rounded=0;strokeColor=#A8201A;fontSize=12;fontColor=#143642;startSize=8;endSize=8;fillColor=#FAE5C7;curved=1;" edge="1" parent="WIyWlLk6GJQsqaUBKTNV-1">
          <mxGeometry width="50" height="50" relative="1" as="geometry">
            <mxPoint x="339.64" y="400" as="sourcePoint" />
            <mxPoint x="339.64" y="340" as="targetPoint" />
          </mxGeometry>
        </mxCell>
        <mxCell id="ZzzxKtEmixDSX6EmBJlI-30" value="" style="endArrow=classic;html=1;rounded=0;strokeColor=#A8201A;fontSize=12;fontColor=#143642;startSize=8;endSize=8;fillColor=#FAE5C7;curved=1;entryX=0;entryY=0.5;entryDx=0;entryDy=0;" edge="1" parent="WIyWlLk6GJQsqaUBKTNV-1">
          <mxGeometry width="50" height="50" relative="1" as="geometry">
            <mxPoint x="100" y="400" as="sourcePoint" />
            <mxPoint x="160" y="400" as="targetPoint" />
          </mxGeometry>
        </mxCell>
        <mxCell id="ZzzxKtEmixDSX6EmBJlI-31" value="" style="endArrow=classic;html=1;rounded=0;strokeColor=#A8201A;fontSize=12;fontColor=#143642;startSize=8;endSize=8;fillColor=#FAE5C7;curved=1;entryX=1;entryY=0.5;entryDx=0;entryDy=0;" edge="1" parent="WIyWlLk6GJQsqaUBKTNV-1">
          <mxGeometry width="50" height="50" relative="1" as="geometry">
            <mxPoint x="340" y="400" as="sourcePoint" />
            <mxPoint x="280" y="400" as="targetPoint" />
          </mxGeometry>
        </mxCell>
        <mxCell id="ZzzxKtEmixDSX6EmBJlI-61" style="edgeStyle=none;curved=1;rounded=0;orthogonalLoop=1;jettySize=auto;html=1;entryX=0;entryY=0.5;entryDx=0;entryDy=0;strokeColor=#A8201A;fontSize=12;fontColor=#143642;startSize=8;endSize=8;fillColor=#FAE5C7;" edge="1" parent="WIyWlLk6GJQsqaUBKTNV-1" source="ZzzxKtEmixDSX6EmBJlI-34">
          <mxGeometry relative="1" as="geometry">
            <mxPoint x="760" y="100" as="targetPoint" />
            <Array as="points">
              <mxPoint x="570" y="800" />
              <mxPoint x="630" y="570" />
              <mxPoint x="600" y="100" />
            </Array>
          </mxGeometry>
        </mxCell>
        <mxCell id="ZzzxKtEmixDSX6EmBJlI-74" style="edgeStyle=none;curved=1;rounded=0;orthogonalLoop=1;jettySize=auto;html=1;exitX=0.5;exitY=1;exitDx=0;exitDy=0;entryX=0.5;entryY=0;entryDx=0;entryDy=0;strokeColor=#A8201A;fontSize=12;fontColor=#143642;startSize=8;endSize=8;fillColor=#FAE5C7;" edge="1" parent="WIyWlLk6GJQsqaUBKTNV-1" source="ZzzxKtEmixDSX6EmBJlI-34" target="ZzzxKtEmixDSX6EmBJlI-73">
          <mxGeometry relative="1" as="geometry" />
        </mxCell>
        <mxCell id="ZzzxKtEmixDSX6EmBJlI-34" value="HOME PAGE" style="swimlane;whiteSpace=wrap;html=1;strokeColor=#0F8B8D;fontSize=16;fontColor=#143642;fillColor=#FAE5C7;shadow=0;spacing=2;" vertex="1" parent="WIyWlLk6GJQsqaUBKTNV-1">
          <mxGeometry x="80" y="800" width="280" height="200" as="geometry" />
        </mxCell>
        <mxCell id="ZzzxKtEmixDSX6EmBJlI-56" value="" style="group;verticalAlign=middle;" vertex="1" connectable="0" parent="ZzzxKtEmixDSX6EmBJlI-34">
          <mxGeometry x="20" y="40" width="240" height="70" as="geometry" />
        </mxCell>
        <mxCell id="ZzzxKtEmixDSX6EmBJlI-35" value="" style="whiteSpace=wrap;html=1;strokeColor=#0F8B8D;fontSize=16;fontColor=#143642;fillColor=#FAE5C7;shadow=0;align=center;" vertex="1" parent="ZzzxKtEmixDSX6EmBJlI-56">
          <mxGeometry width="60" height="70" as="geometry" />
        </mxCell>
        <mxCell id="ZzzxKtEmixDSX6EmBJlI-48" value="" style="rounded=0;whiteSpace=wrap;html=1;strokeColor=#0F8B8D;fontSize=16;fontColor=#143642;fillColor=#FAE5C7;shadow=0;align=center;" vertex="1" parent="ZzzxKtEmixDSX6EmBJlI-56">
          <mxGeometry x="60" width="60" height="70" as="geometry" />
        </mxCell>
        <mxCell id="ZzzxKtEmixDSX6EmBJlI-49" value="" style="rounded=0;whiteSpace=wrap;html=1;strokeColor=#0F8B8D;fontSize=16;fontColor=#143642;fillColor=#FAE5C7;shadow=0;align=center;" vertex="1" parent="ZzzxKtEmixDSX6EmBJlI-56">
          <mxGeometry x="120" width="60" height="70" as="geometry" />
        </mxCell>
        <mxCell id="ZzzxKtEmixDSX6EmBJlI-50" style="edgeStyle=none;curved=1;rounded=0;orthogonalLoop=1;jettySize=auto;html=1;exitX=0;exitY=0.5;exitDx=0;exitDy=0;strokeColor=#A8201A;fontSize=12;fontColor=#143642;startSize=8;endSize=8;fillColor=#FAE5C7;shadow=0;align=center;" edge="1" parent="ZzzxKtEmixDSX6EmBJlI-56" source="ZzzxKtEmixDSX6EmBJlI-49" target="ZzzxKtEmixDSX6EmBJlI-49">
          <mxGeometry relative="1" as="geometry" />
        </mxCell>
        <mxCell id="ZzzxKtEmixDSX6EmBJlI-54" value="" style="rounded=0;whiteSpace=wrap;html=1;strokeColor=#0F8B8D;fontSize=16;fontColor=#143642;fillColor=#FAE5C7;shadow=0;align=center;" vertex="1" parent="ZzzxKtEmixDSX6EmBJlI-56">
          <mxGeometry x="180" width="60" height="70" as="geometry" />
        </mxCell>
        <mxCell id="ZzzxKtEmixDSX6EmBJlI-57" value="" style="rounded=0;whiteSpace=wrap;html=1;strokeColor=#0F8B8D;fontSize=16;fontColor=#143642;fillColor=#FAE5C7;" vertex="1" parent="ZzzxKtEmixDSX6EmBJlI-34">
          <mxGeometry x="20" y="120" width="80" height="60" as="geometry" />
        </mxCell>
        <mxCell id="ZzzxKtEmixDSX6EmBJlI-58" value="" style="rounded=0;whiteSpace=wrap;html=1;strokeColor=#0F8B8D;fontSize=16;fontColor=#143642;fillColor=#FAE5C7;" vertex="1" parent="ZzzxKtEmixDSX6EmBJlI-34">
          <mxGeometry x="105" y="120" width="75" height="60" as="geometry" />
        </mxCell>
        <mxCell id="ZzzxKtEmixDSX6EmBJlI-59" value="&lt;font style=&quot;font-size: 14px;&quot;&gt;LIST CONTENT&lt;/font&gt;" style="text;strokeColor=none;fillColor=none;align=left;verticalAlign=middle;spacingLeft=4;spacingRight=4;overflow=hidden;points=[[0,0.5],[1,0.5]];portConstraint=eastwest;rotatable=0;whiteSpace=wrap;html=1;fontSize=16;fontColor=#143642;" vertex="1" parent="ZzzxKtEmixDSX6EmBJlI-34">
          <mxGeometry x="190" y="120" width="80" height="70" as="geometry" />
        </mxCell>
        <mxCell id="ZzzxKtEmixDSX6EmBJlI-37" value="List" style="swimlane;fontStyle=0;childLayout=stackLayout;horizontal=1;startSize=30;horizontalStack=0;resizeParent=1;resizeParentMax=0;resizeLast=0;collapsible=1;marginBottom=0;whiteSpace=wrap;html=1;strokeColor=#0F8B8D;fontSize=16;fontColor=#143642;fillColor=#FAE5C7;" vertex="1" parent="WIyWlLk6GJQsqaUBKTNV-1">
          <mxGeometry x="155" y="540" width="140" height="120" as="geometry" />
        </mxCell>
        <mxCell id="ZzzxKtEmixDSX6EmBJlI-38" value="IMG CONTENT" style="text;strokeColor=none;fillColor=none;align=left;verticalAlign=middle;spacingLeft=4;spacingRight=4;overflow=hidden;points=[[0,0.5],[1,0.5]];portConstraint=eastwest;rotatable=0;whiteSpace=wrap;html=1;fontSize=16;fontColor=#143642;" vertex="1" parent="ZzzxKtEmixDSX6EmBJlI-37">
          <mxGeometry y="30" width="140" height="30" as="geometry" />
        </mxCell>
        <mxCell id="ZzzxKtEmixDSX6EmBJlI-39" value="TEXT" style="text;strokeColor=none;fillColor=none;align=left;verticalAlign=middle;spacingLeft=4;spacingRight=4;overflow=hidden;points=[[0,0.5],[1,0.5]];portConstraint=eastwest;rotatable=0;whiteSpace=wrap;html=1;fontSize=16;fontColor=#143642;" vertex="1" parent="ZzzxKtEmixDSX6EmBJlI-37">
          <mxGeometry y="60" width="140" height="30" as="geometry" />
        </mxCell>
        <mxCell id="ZzzxKtEmixDSX6EmBJlI-40" value="AUTHOR" style="text;strokeColor=none;fillColor=none;align=left;verticalAlign=middle;spacingLeft=4;spacingRight=4;overflow=hidden;points=[[0,0.5],[1,0.5]];portConstraint=eastwest;rotatable=0;whiteSpace=wrap;html=1;fontSize=16;fontColor=#143642;" vertex="1" parent="ZzzxKtEmixDSX6EmBJlI-37">
          <mxGeometry y="90" width="140" height="30" as="geometry" />
        </mxCell>
        <mxCell id="ZzzxKtEmixDSX6EmBJlI-46" style="edgeStyle=none;curved=1;rounded=0;orthogonalLoop=1;jettySize=auto;html=1;entryX=0.5;entryY=0;entryDx=0;entryDy=0;strokeColor=#A8201A;fontSize=12;fontColor=#143642;startSize=8;endSize=8;fillColor=#FAE5C7;" edge="1" parent="WIyWlLk6GJQsqaUBKTNV-1" source="ZzzxKtEmixDSX6EmBJlI-41" target="ZzzxKtEmixDSX6EmBJlI-37">
          <mxGeometry relative="1" as="geometry" />
        </mxCell>
        <mxCell id="ZzzxKtEmixDSX6EmBJlI-41" value="PAGE CRUD" style="swimlane;whiteSpace=wrap;html=1;strokeColor=#0F8B8D;fontSize=16;fontColor=#143642;fillColor=#FAE5C7;" vertex="1" parent="WIyWlLk6GJQsqaUBKTNV-1">
          <mxGeometry x="160" y="350" width="130" height="150" as="geometry" />
        </mxCell>
        <mxCell id="ZzzxKtEmixDSX6EmBJlI-43" value="" style="rounded=0;whiteSpace=wrap;html=1;strokeColor=#0F8B8D;fontSize=16;fontColor=#143642;fillColor=#FAE5C7;" vertex="1" parent="ZzzxKtEmixDSX6EmBJlI-41">
          <mxGeometry x="5" y="30" width="120" height="60" as="geometry" />
        </mxCell>
        <mxCell id="ZzzxKtEmixDSX6EmBJlI-44" value="CONTENT" style="text;strokeColor=none;fillColor=none;align=left;verticalAlign=middle;spacingLeft=4;spacingRight=4;overflow=hidden;points=[[0,0.5],[1,0.5]];portConstraint=eastwest;rotatable=0;whiteSpace=wrap;html=1;fontSize=16;fontColor=#143642;" vertex="1" parent="ZzzxKtEmixDSX6EmBJlI-41">
          <mxGeometry x="5" y="100" width="115" height="30" as="geometry" />
        </mxCell>
        <mxCell id="ZzzxKtEmixDSX6EmBJlI-62" value="&lt;b&gt;USER VISIT&lt;/b&gt;" style="text;html=1;strokeColor=none;fillColor=none;align=center;verticalAlign=middle;whiteSpace=wrap;rounded=0;fontSize=16;fontColor=#143642;" vertex="1" parent="WIyWlLk6GJQsqaUBKTNV-1">
          <mxGeometry x="755" y="40" width="140" height="30" as="geometry" />
        </mxCell>
        <mxCell id="ZzzxKtEmixDSX6EmBJlI-63" value="&lt;font style=&quot;font-size: 13px;&quot;&gt;PAGE FOR USERS&lt;/font&gt;" style="swimlane;fontStyle=0;childLayout=stackLayout;horizontal=1;startSize=30;horizontalStack=0;resizeParent=1;resizeParentMax=0;resizeLast=0;collapsible=1;marginBottom=0;whiteSpace=wrap;html=1;strokeColor=#0F8B8D;fontSize=16;fontColor=#143642;fillColor=#FAE5C7;" vertex="1" parent="WIyWlLk6GJQsqaUBKTNV-1">
          <mxGeometry x="760" y="80" width="140" height="150" as="geometry" />
        </mxCell>
        <mxCell id="ZzzxKtEmixDSX6EmBJlI-64" value="HOME" style="text;strokeColor=none;fillColor=none;align=left;verticalAlign=middle;spacingLeft=4;spacingRight=4;overflow=hidden;points=[[0,0.5],[1,0.5]];portConstraint=eastwest;rotatable=0;whiteSpace=wrap;html=1;fontSize=16;fontColor=#143642;" vertex="1" parent="ZzzxKtEmixDSX6EmBJlI-63">
          <mxGeometry y="30" width="140" height="30" as="geometry" />
        </mxCell>
        <mxCell id="ZzzxKtEmixDSX6EmBJlI-70" style="edgeStyle=none;curved=1;rounded=0;orthogonalLoop=1;jettySize=auto;html=1;strokeColor=#A8201A;fontSize=12;fontColor=#143642;startSize=8;endSize=8;fillColor=#FAE5C7;" edge="1" parent="ZzzxKtEmixDSX6EmBJlI-63" source="ZzzxKtEmixDSX6EmBJlI-65">
          <mxGeometry relative="1" as="geometry">
            <mxPoint x="290" y="75" as="targetPoint" />
          </mxGeometry>
        </mxCell>
        <mxCell id="ZzzxKtEmixDSX6EmBJlI-65" value="&lt;font style=&quot;font-size: 15px; border: 1px solid #000; padding : 4px;&quot;&gt;BLOG PAGE&amp;nbsp;&lt;/font&gt;" style="text;strokeColor=none;fillColor=none;align=left;verticalAlign=middle;spacingLeft=4;spacingRight=4;overflow=hidden;points=[[0,0.5],[1,0.5]];portConstraint=eastwest;rotatable=0;whiteSpace=wrap;html=1;fontSize=16;fontColor=#143642;" vertex="1" parent="ZzzxKtEmixDSX6EmBJlI-63">
          <mxGeometry y="60" width="140" height="40" as="geometry" />
        </mxCell>
        <mxCell id="ZzzxKtEmixDSX6EmBJlI-66" value="&lt;span style=&quot;background-color: rgb(255, 20, 20);&quot;&gt;&lt;font color=&quot;#f7ffed&quot;&gt;ADMIN&amp;nbsp; &lt;b&gt;X&lt;/b&gt;&lt;/font&gt;&lt;/span&gt;" style="text;strokeColor=none;fillColor=none;align=left;verticalAlign=middle;spacingLeft=4;spacingRight=4;overflow=hidden;points=[[0,0.5],[1,0.5]];portConstraint=eastwest;rotatable=0;whiteSpace=wrap;html=1;fontSize=16;fontColor=#143642;" vertex="1" parent="ZzzxKtEmixDSX6EmBJlI-63">
          <mxGeometry y="100" width="140" height="50" as="geometry" />
        </mxCell>
        <mxCell id="ZzzxKtEmixDSX6EmBJlI-71" value="&lt;font style=&quot;font-size: 13px;&quot;&gt;USER COMMENT BLOG PAGE&amp;nbsp;&lt;/font&gt;" style="rounded=1;whiteSpace=wrap;html=1;strokeColor=#0F8B8D;fontSize=16;fontColor=#143642;fillColor=#FAE5C7;" vertex="1" parent="WIyWlLk6GJQsqaUBKTNV-1">
          <mxGeometry x="1050" y="130" width="120" height="60" as="geometry" />
        </mxCell>
        <mxCell id="ZzzxKtEmixDSX6EmBJlI-73" value="&lt;font style=&quot;font-size: 15px;&quot;&gt;CAN DO ANYTHINGS&amp;nbsp;&lt;br&gt;&lt;/font&gt;&lt;font style=&quot;font-size: 12px;&quot;&gt;LIKE DELET/ EDIT&amp;nbsp;&lt;/font&gt;" style="rounded=0;whiteSpace=wrap;html=1;strokeColor=#0F8B8D;fontSize=16;fontColor=#143642;fillColor=#FAE5C7;" vertex="1" parent="WIyWlLk6GJQsqaUBKTNV-1">
          <mxGeometry x="165" y="1120" width="120" height="70" as="geometry" />
        </mxCell>
      </root>
    </mxGraphModel>
  </diagram>
</mxfile>
